<svg width="36" height="35" viewBox="0 0 36 35" fill="none" xmlns="http://www.w3.org/2000/svg">
<path d="M18.7915 0.28603C14.3846 0.991905 10.1875 3.89172 8.24157 7.61187C7.89817 8.26052 7.59293 8.83285 7.55477 8.871C7.51662 8.90916 7.15414 8.79469 6.71536 8.62299C4.92205 7.89804 2.32748 8.66115 1.18282 10.2637C0.114466 11.7327 0.0190777 12.3241 0.0763109 17.8757L0.133544 22.9122L1.52622 22.9694L2.89981 23.0267V18.0474C2.89981 12.553 2.9952 12.0188 4.0254 11.4846C4.73127 11.1031 5.43715 11.1031 6.12395 11.4465C7.1923 11.9997 7.1923 11.9807 7.28769 17.6468L7.38308 22.9122L8.77575 22.9694L10.1493 23.0267V17.952C10.1493 12.3431 10.2066 12.0188 11.3322 11.4465C12.1525 11.0268 13.2972 11.1985 13.9458 11.828L14.4418 12.3241L14.5372 17.6277L14.6326 22.9122L16.5404 22.9694C17.5897 22.9885 18.5435 22.9504 18.658 22.874C18.7725 22.7787 19.65 21.634 20.623 20.2795C21.596 18.944 22.4735 17.8566 22.5499 17.8566C22.6452 17.8566 23.4656 18.8486 24.3622 20.0505C25.2589 21.2524 26.1937 22.378 26.4608 22.5497C26.7279 22.7214 27.3193 22.9122 27.7962 22.9694C28.2732 23.0076 28.6547 23.103 28.6547 23.1793C28.6547 23.4273 27.3002 24.3621 26.0411 24.9917C23.5228 26.2508 23.5991 26.2508 11.1986 26.2508H0L0.0763109 30.5814L0.133544 34.9312L9.38624 34.9884C15.5293 35.0266 19.2494 34.9693 20.4513 34.8358C25.5451 34.2062 30.0092 31.5353 33.0808 27.2619C34.6833 25.0298 34.6451 24.82 32.9472 26.556C30.2191 29.3223 27.6055 30.7531 23.4656 31.7261C22.2828 31.9932 20.6993 32.0504 12.5913 32.1077L3.09059 32.184L3.07151 30.9439C3.05243 30.2571 3.03336 29.5703 3.01428 29.4368C2.9952 29.2651 5.18914 29.1888 13.1064 29.0934C24.2669 28.9789 24.1142 28.998 26.8805 27.6816C30.8868 25.7929 33.4051 22.8359 34.7787 18.4289C35.1412 17.2652 35.2365 16.5593 35.2365 14.7088C35.2365 13.3543 35.1221 11.9997 34.9695 11.3702C33.3288 4.97915 28.0252 0.553116 21.6532 0.228798C20.623 0.171562 19.3448 0.209717 18.7915 0.28603ZM23.1222 3.16677C29.5323 4.59759 33.5768 10.8551 32.165 17.1507C31.8407 18.6197 30.6007 21.2143 29.952 21.7866C29.5705 22.1491 29.5514 22.13 28.9981 21.4814C27.3956 19.5736 24.4386 15.51 24.5149 15.3193C24.5721 15.1857 25.1063 14.4417 25.7168 13.6595C27.6055 11.2176 29.6086 8.5276 29.6086 8.41314C29.6086 8.3559 28.8455 8.31775 27.9298 8.31775C26.0029 8.31775 26.4608 7.95527 24.0761 11.2939C23.3893 12.2478 22.7597 13.0681 22.6834 13.1063C22.588 13.1444 21.8249 12.2287 20.9664 11.084C19.9362 9.69134 19.1731 8.871 18.7343 8.66115C18.0284 8.29867 15.6819 8.1842 15.6819 8.48945C15.6819 8.58484 16.7121 10.0347 17.9521 11.7136C19.2113 13.3924 20.3368 14.9377 20.4704 15.1476C20.6802 15.4719 20.5276 15.7581 19.2113 17.4941C18.3909 18.5816 17.6469 19.4973 17.5706 19.5354C17.4752 19.5736 17.3989 18.0283 17.3989 16.1015C17.3989 14.1746 17.3035 12.2859 17.2081 11.9044C16.9029 10.836 15.9108 9.67227 14.728 9.00455C13.8504 8.50853 13.4689 8.41314 12.4005 8.41314C11.6756 8.41314 11.1032 8.3559 11.1032 8.27959C11.1032 8.08882 12.4005 6.5626 13.0682 5.97119C14.48 4.71206 16.6548 3.60555 18.4482 3.18584C19.4974 2.95691 22.0729 2.93783 23.1222 3.16677Z" fill="#0C50A3"/>
</svg>
