<svg width="245" height="74" viewBox="0 0 245 74" fill="none" xmlns="http://www.w3.org/2000/svg">
<path d="M34.0725 16.1207C28.7975 16.922 26.0598 17.8791 23.4112 19.8377C21.9868 20.9061 18.9375 24.1556 18.9375 24.6008C18.9375 24.6898 19.9836 24.7566 21.2745 24.7566H23.6115L24.3683 23.6437C26.9279 19.9045 31.3571 17.011 35.2744 16.5214C36.1202 16.4101 36.454 16.2988 36.276 16.1653C35.9644 15.9649 35.1186 15.9427 34.0725 16.1207Z" fill="white"/>
<path d="M37.9235 17.5004C32.782 18.3239 27.8854 21.707 25.6152 26.0472C25.2145 26.8039 24.8584 27.4717 24.8139 27.5162C24.7694 27.5607 24.3465 27.4271 23.8346 27.2268C21.7424 26.381 18.7154 27.2713 17.38 29.141C16.1335 30.8548 16.0223 31.5447 16.089 38.0216L16.1558 43.8976L17.7806 43.9643L19.3831 44.0311V38.2219C19.3831 31.8118 19.4944 31.1886 20.6963 30.5654C21.5198 30.1203 22.3433 30.1203 23.1446 30.5209C24.391 31.1664 24.391 31.1441 24.5023 37.7545L24.6136 43.8976L26.2384 43.9643L27.8409 44.0311V38.1107C27.8409 31.567 27.9077 31.1886 29.2209 30.5209C30.1779 30.0312 31.5134 30.2316 32.2701 30.9661L32.8488 31.5447L32.9601 37.7323L33.0714 43.8976L35.2971 43.9643C36.5213 43.9866 37.6341 43.9421 37.7677 43.8531C37.9012 43.7418 38.9251 42.4063 40.0602 40.8261C41.1953 39.268 42.2191 37.9994 42.3082 37.9994C42.4195 37.9994 43.3765 39.1568 44.4226 40.559C45.4687 41.9612 46.5593 43.2744 46.8709 43.4747C47.1825 43.675 47.8725 43.8976 48.4289 43.9643C48.9854 44.0089 49.4305 44.1201 49.4305 44.2092C49.4305 44.4985 47.8502 45.5891 46.3813 46.3236C43.4433 47.7926 43.5323 47.7926 29.0651 47.7926H16L16.089 52.845L16.1558 57.9197L26.9506 57.9865C34.1175 58.031 38.4576 57.9642 39.8599 57.8084C45.8026 57.0739 51.0108 53.9579 54.5942 48.9722C56.4638 46.3681 56.4193 46.1233 54.4384 48.1487C51.2556 51.376 48.2064 53.0453 43.3765 54.1805C41.9966 54.4921 40.1492 54.5588 30.6898 54.6256L19.6057 54.7146L19.5834 53.2679C19.5612 52.4666 19.5389 51.6654 19.5167 51.5096C19.4944 51.3093 22.054 51.2202 31.2908 51.1089C44.3113 50.9754 44.1333 50.9977 47.3606 49.4619C52.0346 47.2584 54.9726 43.8085 56.5751 38.6671C56.998 37.3094 57.1093 36.4859 57.1093 34.3269C57.1093 32.7466 56.9758 31.1664 56.7977 30.4319C54.8836 22.9757 48.696 17.812 41.2621 17.4336C40.0602 17.3668 38.5689 17.4113 37.9235 17.5004ZM42.9759 20.8612C50.4544 22.5305 55.1729 29.8309 53.5259 37.1759C53.1475 38.8897 51.7008 41.9167 50.944 42.5844C50.4989 43.0073 50.4766 42.985 49.8311 42.2283C47.9615 40.0025 44.5116 35.2617 44.6007 35.0391C44.6674 34.8833 45.2907 34.0153 46.0029 33.1028C48.2064 30.2538 50.5434 27.1155 50.5434 26.982C50.5434 26.9152 49.6531 26.8707 48.5847 26.8707C46.3367 26.8707 46.8709 26.4478 44.0888 30.3429C43.2875 31.4557 42.553 32.4128 42.464 32.4573C42.3527 32.5018 41.4624 31.4335 40.4608 30.098C39.2589 28.4732 38.3686 27.5162 37.8567 27.2713C37.0332 26.8484 34.2955 26.7149 34.2955 27.071C34.2955 27.1823 35.4974 28.8739 36.9442 30.8325C38.4131 32.7912 39.7263 34.594 39.8821 34.8388C40.1269 35.2172 39.9489 35.5511 38.4131 37.5765C37.4561 38.8452 36.588 39.9135 36.499 39.958C36.3877 40.0025 36.2987 38.1997 36.2987 35.9517C36.2987 33.7037 36.1874 31.5002 36.0761 31.0551C35.72 29.8087 34.5626 28.451 33.1827 27.672C32.1588 27.0933 31.7137 26.982 30.4673 26.982C29.6215 26.982 28.9538 26.9152 28.9538 26.8262C28.9538 26.6036 30.4673 24.823 31.2463 24.1331C32.8933 22.6641 35.4307 21.3731 37.5228 20.8835C38.747 20.6164 41.7517 20.5941 42.9759 20.8612Z" fill="white"/>
<path d="M151.973 36.7894V52.5787H156.604H161.235V46.0072V39.4357L162.183 38.5315C163.44 37.2745 164.564 36.8115 165.557 37.1422C165.976 37.2966 166.439 37.6053 166.593 37.87C166.77 38.2007 166.902 40.1193 166.968 44.1989C167.078 49.7781 167.1 50.0868 167.586 50.8366C168.424 52.2038 169.262 52.4685 172.988 52.5346L176.274 52.6008L176.164 44.2651C176.076 35.2678 175.987 34.6503 174.819 32.6436C173.672 30.681 171.621 29.6445 168.887 29.6445C166.307 29.6445 164.344 30.3281 162.337 31.9379L161.345 32.7318L161.235 28.2552C161.124 23.8448 161.102 23.7566 160.529 22.8745C159.603 21.4632 158.765 21.1765 155.126 21.0883L151.973 21.0001V36.7894Z" fill="white"/>
<path d="M203.354 36.8117V52.5789H207.521H211.689L212.086 51.4102C212.285 50.7927 212.505 50.1752 212.549 50.087C212.615 49.9988 213.056 50.3296 213.564 50.8148C214.071 51.2999 215.041 51.9835 215.703 52.3143C216.739 52.8215 217.246 52.9318 219.165 52.9759C221.194 53.042 221.547 52.9979 222.627 52.5128C225.163 51.344 226.508 49.7562 227.523 46.7351C228.317 44.3976 228.515 40.1195 227.964 37.4071C226.905 32.1807 224.237 29.6447 219.782 29.6447C217.136 29.6447 215.306 30.3063 213.696 31.8499C213.189 32.3351 212.726 32.732 212.682 32.732C212.66 32.732 212.615 30.8135 212.615 28.476C212.615 24.8374 212.549 24.1096 212.196 23.3378C211.38 21.5295 210.035 21.0444 205.89 21.0444H203.354V36.8117ZM217.93 37.385C218.834 38.0245 219.275 39.3918 219.253 41.5088C219.253 44.6843 218.084 46.1618 215.747 45.8971C214.644 45.7869 213.828 45.2576 213.123 44.1991C212.682 43.5817 212.615 43.1847 212.615 41.4426C212.615 39.7005 212.682 39.3035 213.123 38.6861C214.335 36.8778 216.408 36.3265 217.93 37.385Z" fill="white"/>
<path d="M82.0675 27.4396C82.0675 30.8356 82.0233 33.6142 81.9572 33.6142C81.9131 33.6142 81.4059 33.107 80.8325 32.5116C80.2151 31.85 79.2227 31.1223 78.3406 30.6812C76.9734 30.0197 76.7749 29.9756 74.3492 29.9756C71.9235 29.9756 71.725 30.0197 70.3578 30.6812C66.9397 32.3792 65.1094 36.1281 65.1094 41.4427C65.1094 46.7572 66.9397 50.5061 70.3578 52.2041C71.725 52.8657 71.9455 52.9098 74.239 52.9098C76.6206 52.9098 76.7308 52.8877 78.3627 52.0718C79.5094 51.5205 80.3694 50.881 81.031 50.1532C82.1116 48.9624 82.1116 48.9404 82.3762 50.6163C82.4644 51.0574 82.7731 51.6969 83.1039 52.0056C83.567 52.4908 83.8757 52.579 84.846 52.579C85.5076 52.579 86.0368 52.5349 86.0368 52.4908C86.0368 52.4246 85.9045 52.1159 85.7722 51.763C85.5517 51.3 85.4635 47.5731 85.3753 36.7456L85.265 22.3235L84.6475 21.7942C84.1845 21.3973 83.7655 21.265 83.0377 21.265H82.0675V27.4396ZM78.2745 33.5039C78.914 33.8567 80.0387 34.7609 80.7664 35.5327L82.0675 36.944V41.4427V45.9413L80.8325 47.2644C79.9946 48.1686 79.1345 48.8301 78.1422 49.3153C76.8411 49.9768 76.4662 50.043 74.7682 50.043C73.0481 50.043 72.7835 49.9768 71.7912 49.3814C69.7844 48.1465 68.7039 45.8751 68.4613 42.435C68.2187 38.6861 69.1229 35.7091 70.9752 34.0552C72.2763 32.9305 72.9158 32.7321 75.2313 32.7982C76.819 32.8644 77.2821 32.9526 78.2745 33.5039Z" fill="white"/>
<path d="M116.402 24.9477C116.181 26.9985 116.027 28.9832 116.027 29.3581V30.0858H113.381H110.734V31.5192V32.9305L113.27 32.9967L115.784 33.0629L115.85 40.6708C115.917 48.0803 115.939 48.3009 116.424 49.3814C117.041 50.7045 118.034 51.7851 119.224 52.4246C119.996 52.8436 120.459 52.9098 122.863 52.9098C125.134 52.9098 125.752 52.8436 126.391 52.4908C126.81 52.2702 127.229 51.9615 127.318 51.8292C127.582 51.4323 127.516 50.043 127.229 49.646C126.965 49.3153 126.832 49.3153 125.62 49.7343C124.627 50.0871 123.899 50.1753 122.687 50.1091C121.143 50.043 121.011 49.9989 120.327 49.2271C119.908 48.786 119.489 48.0583 119.357 47.5731C119.202 47.0659 119.114 44.0448 119.114 39.8329V32.9526H123.084H127.053V31.5192V30.0858H123.084H119.114V25.6754V21.265H117.945H116.777L116.402 24.9477Z" fill="white"/>
<path d="M95.4527 30.0858C92.4316 30.8576 90.2264 33.3716 89.1899 37.1866C88.6607 39.1051 88.6607 43.7802 89.1899 45.6987C90.0499 48.8963 91.6818 51.0133 94.1957 52.2261C95.5409 52.8657 95.7835 52.9098 98.0769 52.9098C100.436 52.9098 100.547 52.8877 102.157 52.0938C103.237 51.5646 104.185 50.881 104.869 50.1532C105.442 49.5578 105.95 49.0506 105.994 49.0506C106.06 49.0506 106.104 49.3594 106.104 49.7122C106.104 50.6384 106.611 51.7851 107.229 52.2261C107.736 52.579 109.853 52.7333 109.853 52.4026C109.831 52.3144 109.698 51.6528 109.522 50.9251C109.257 49.8886 109.191 47.7055 109.191 40.7149C109.191 30.7253 109.191 30.7253 107.692 30.3284C106.17 29.8873 106.148 29.9094 105.994 31.8059L105.839 33.5259L104.693 32.4013C104.075 31.7838 102.972 30.99 102.245 30.6592C101.098 30.1079 100.613 30.0197 98.6062 29.9535C97.3271 29.9094 95.9158 29.9756 95.4527 30.0858ZM102.289 33.5921C103.039 34.0111 104.163 34.8491 104.781 35.5106L105.883 36.6794V41.2883V45.8972L105.156 46.8234C103.458 48.9624 101.186 50.043 98.3856 50.043C96.7317 50.043 96.3789 49.9768 95.4748 49.4255C93.6003 48.3229 92.5418 46.4044 92.1449 43.295C91.5274 38.3333 93.1813 34.2096 96.3127 33.0408C96.8861 32.8423 97.8123 32.7541 99.0472 32.7982C100.679 32.8644 101.098 32.9526 102.289 33.5921Z" fill="white"/>
<path d="M134.397 30.2622C131.597 31.2546 129.811 33.2834 128.774 36.6353C128.377 37.8923 128.311 38.6861 128.289 41.4427C128.289 44.4417 128.355 44.9269 128.884 46.5367C129.855 49.4917 131.332 51.1897 134.001 52.4026C134.949 52.8436 135.456 52.9098 137.551 52.9098C139.911 52.9098 140.021 52.8877 141.631 52.0938C142.711 51.5646 143.659 50.881 144.343 50.1532C144.916 49.5578 145.424 49.0506 145.468 49.0506C145.534 49.0506 145.578 49.3373 145.578 49.6902C145.578 50.5502 145.931 51.4764 146.504 52.0938C146.901 52.4908 147.21 52.579 148.246 52.579H149.525L149.15 51.741C148.82 51.0353 148.753 49.7343 148.665 41.2221C148.577 33.989 148.489 31.3869 148.268 31.0341C148.026 30.571 146.835 30.0858 145.997 30.0858C145.578 30.0858 145.357 30.9238 145.357 32.5116V33.5701L144.167 32.4233C143.527 31.7838 142.402 30.99 141.697 30.6371C140.572 30.1079 140.087 29.9976 137.97 29.9315C136.007 29.8653 135.324 29.9315 134.397 30.2622ZM141.763 33.5921C142.513 34.0111 143.637 34.8491 144.255 35.5106L145.357 36.6794V41.3103V45.9192L144.762 46.647C143.681 47.926 142.866 48.5875 141.388 49.3373C140.087 49.9768 139.778 50.043 137.948 50.043C136.118 50.043 135.875 49.9989 134.861 49.3814C132.788 48.1024 131.751 45.831 131.531 42.1924C131.288 38.0687 132.589 34.6506 134.883 33.4598C136.051 32.8423 136.603 32.7541 138.521 32.7982C140.153 32.8644 140.572 32.9526 141.763 33.5921Z" fill="white"/>
<path d="M177.553 38.0251C177.553 42.9869 177.641 46.3829 177.795 47.1106C178.17 48.9189 179.008 50.4846 180.111 51.4549C181.544 52.7118 182.823 53.0867 185.447 52.9765C187.939 52.8883 189.262 52.3811 191.137 50.7272L192.261 49.7348L192.526 50.4846C192.658 50.9036 193.144 51.521 193.563 51.8959L194.334 52.5795H198.59H202.869L202.295 51.2123C201.59 49.4481 201.567 48.8968 201.523 38.6867L201.479 30.1966H196.892H192.306L192.328 36.5256C192.35 43.5382 192.35 43.5602 190.916 44.8172C189.549 46.008 187.631 45.9639 187.057 44.729C186.903 44.3761 186.815 42.4356 186.815 39.238C186.815 33.5044 186.638 32.3577 185.602 31.3213C184.654 30.351 183.463 30.0864 180.221 30.0864H177.553V38.0251Z" fill="white"/>
</svg>
