<svg width="188" height="68" viewBox="0 0 188 68" fill="none" xmlns="http://www.w3.org/2000/svg">
<path d="M36.8845 16.1035C32.363 16.7903 30.0165 17.6106 27.7462 19.2894C26.5253 20.2052 23.9116 22.9905 23.9116 23.3721C23.9116 23.4484 24.8083 23.5056 25.9148 23.5056H27.9179L28.5666 22.5517C30.7605 19.3467 34.557 16.8666 37.9147 16.4469C38.6396 16.3515 38.9258 16.2561 38.7732 16.1416C38.5061 15.9699 37.7811 15.9508 36.8845 16.1035Z" fill="#0C50A3"/>
<path d="M40.1849 17.286C35.7779 17.9919 31.5808 20.8917 29.6349 24.6119C29.2915 25.2605 28.9862 25.8328 28.9481 25.871C28.9099 25.9092 28.5475 25.7947 28.1087 25.623C26.3154 24.898 23.7208 25.6611 22.5761 27.2637C21.5078 28.7327 21.4124 29.3241 21.4696 34.8757L21.5269 39.9122L22.9195 39.9694L24.2931 40.0267V35.0474C24.2931 29.553 24.3885 29.0188 25.4187 28.4846C26.1246 28.1031 26.8305 28.1031 27.5173 28.4465C28.5856 28.9997 28.5856 28.9807 28.681 34.6468L28.7764 39.9122L30.1691 39.9694L31.5427 40.0267V34.952C31.5427 29.3431 31.5999 29.0188 32.7255 28.4465C33.5458 28.0268 34.6905 28.1985 35.3391 28.828L35.8351 29.3241L35.9305 34.6277L36.0259 39.9122L37.9337 39.9694C38.983 39.9885 39.9368 39.9504 40.0513 39.874C40.1658 39.7787 41.0434 38.634 42.0163 37.2795C42.9893 35.944 43.8669 34.8566 43.9432 34.8566C44.0386 34.8566 44.8589 35.8486 45.7556 37.0505C46.6522 38.2524 47.587 39.378 47.8541 39.5497C48.1212 39.7214 48.7126 39.9122 49.1895 39.9694C49.6665 40.0076 50.048 40.103 50.048 40.1793C50.048 40.4273 48.6935 41.3621 47.4344 41.9917C44.9161 43.2508 44.9924 43.2508 32.5919 43.2508H21.3933L21.4696 47.5814L21.5269 51.9312L30.7795 51.9884C36.9226 52.0266 40.6427 51.9693 41.8446 51.8358C46.9384 51.2062 51.4026 48.5353 54.4741 44.2619C56.0766 42.0298 56.0384 41.82 54.3405 43.556C51.6124 46.3223 48.9988 47.7531 44.8589 48.7261C43.6761 48.9932 42.0926 49.0504 33.9846 49.1077L24.4839 49.184L24.4648 47.9439C24.4457 47.2571 24.4267 46.5703 24.4076 46.4368C24.3885 46.2651 26.5824 46.1888 34.4997 46.0934C45.6602 45.9789 45.5075 45.998 48.2738 44.6816C52.2801 42.7929 54.7984 39.8359 56.172 35.4289C56.5345 34.2652 56.6298 33.5593 56.6298 31.7088C56.6298 30.3543 56.5154 28.9997 56.3628 28.3702C54.7221 21.9791 49.4185 17.5531 43.0465 17.2288C42.0163 17.1716 40.7381 17.2097 40.1849 17.286ZM44.5155 20.1668C50.9256 21.5976 54.9701 27.8551 53.5583 34.1507C53.234 35.6197 51.994 38.2143 51.3453 38.7866C50.9638 39.1491 50.9447 39.13 50.3914 38.4814C48.7889 36.5736 45.8319 32.51 45.9082 32.3193C45.9654 32.1857 46.4996 31.4417 47.1101 30.6595C48.9988 28.2176 51.0019 25.5276 51.0019 25.4131C51.0019 25.3559 50.2388 25.3177 49.3231 25.3177C47.3962 25.3177 47.8541 24.9553 45.4694 28.2939C44.7826 29.2478 44.153 30.0681 44.0767 30.1063C43.9813 30.1444 43.2182 29.2287 42.3597 28.084C41.3295 26.6913 40.5664 25.871 40.1276 25.6611C39.4218 25.2987 37.0752 25.1842 37.0752 25.4894C37.0752 25.5848 38.1054 27.0347 39.3454 28.7136C40.6046 30.3924 41.7302 31.9377 41.8637 32.1476C42.0736 32.4719 41.9209 32.7581 40.6046 34.4941C39.7842 35.5816 39.0402 36.4973 38.9639 36.5354C38.8685 36.5736 38.7922 35.0283 38.7922 33.1015C38.7922 31.1746 38.6968 29.2859 38.6014 28.9044C38.2962 27.836 37.3041 26.6723 36.1213 26.0045C35.2437 25.5085 34.8622 25.4131 33.7938 25.4131C33.0689 25.4131 32.4965 25.3559 32.4965 25.2796C32.4965 25.0888 33.7938 23.5626 34.4615 22.9712C35.8733 21.7121 38.0482 20.6056 39.8415 20.1858C40.8907 19.9569 43.4662 19.9378 44.5155 20.1668Z" fill="#0C50A3"/>
<path d="M118.918 33.8684V43.7365H121.812H124.707V39.6294V35.5222L125.299 34.9572C126.085 34.1716 126.788 33.8822 127.408 34.0889C127.67 34.1854 127.959 34.3783 128.056 34.5437C128.166 34.7504 128.249 35.9495 128.29 38.4992C128.359 41.9861 128.373 42.1791 128.676 42.6477C129.2 43.5022 129.723 43.6676 132.053 43.7089L134.106 43.7502L134.037 38.5406C133.982 32.9174 133.927 32.5315 133.197 31.2773C132.48 30.0507 131.198 29.4029 129.489 29.4029C127.877 29.4029 126.65 29.8302 125.396 30.8363L124.776 31.3324L124.707 28.5347C124.638 25.7782 124.624 25.7231 124.266 25.1718C123.687 24.2897 123.163 24.1106 120.889 24.0554L118.918 24.0003V33.8684Z" fill="#0C50A3"/>
<path d="M151.031 33.8823V43.7366H153.636H156.24L156.489 43.0061C156.613 42.6202 156.75 42.2343 156.778 42.1792C156.819 42.1241 157.095 42.3308 157.412 42.634C157.729 42.9372 158.335 43.3645 158.749 43.5712C159.397 43.8882 159.714 43.9571 160.913 43.9847C162.181 44.026 162.401 43.9984 163.076 43.6952C164.661 42.9648 165.502 41.9725 166.136 40.0843C166.632 38.6234 166.756 35.9496 166.412 34.2544C165.75 30.988 164.083 29.4031 161.299 29.4031C159.645 29.4031 158.501 29.8165 157.495 30.7813C157.178 31.0845 156.888 31.3326 156.861 31.3326C156.847 31.3326 156.819 30.1335 156.819 28.6726C156.819 26.3985 156.778 25.9437 156.557 25.4613C156.047 24.3312 155.207 24.028 152.616 24.028H151.031V33.8823ZM160.141 34.2406C160.706 34.6403 160.982 35.4948 160.968 36.8179C160.968 38.8025 160.237 39.726 158.776 39.5606C158.087 39.4917 157.577 39.1609 157.136 38.4993C156.861 38.1134 156.819 37.8654 156.819 36.7766C156.819 35.6878 156.861 35.4397 157.136 35.0538C157.894 33.9236 159.19 33.5791 160.141 34.2406Z" fill="#0C50A3"/>
<path d="M75.2284 28.0249C75.2284 30.1473 75.2009 31.8839 75.1595 31.8839C75.1319 31.8839 74.815 31.5669 74.4566 31.1948C74.0707 30.7813 73.4505 30.3265 72.8992 30.0509C72.0447 29.6374 71.9207 29.6098 70.4046 29.6098C68.8886 29.6098 68.7646 29.6374 67.9101 30.0509C65.7738 31.1121 64.6299 33.4551 64.6299 36.7766C64.6299 40.0981 65.7738 42.4411 67.9101 43.5023C68.7646 43.9158 68.9024 43.9434 70.3357 43.9434C71.8242 43.9434 71.8931 43.9296 72.913 43.4196C73.6297 43.0751 74.1672 42.6754 74.5807 42.2206C75.256 41.4763 75.256 41.4626 75.4214 42.51C75.4765 42.7857 75.6695 43.1853 75.8762 43.3783C76.1656 43.6815 76.3586 43.7366 76.965 43.7366C77.3785 43.7366 77.7092 43.7091 77.7092 43.6815C77.7092 43.6402 77.6265 43.4472 77.5438 43.2267C77.406 42.9373 77.3509 40.6081 77.2958 33.841L77.2268 24.8274L76.8409 24.4966C76.5515 24.2485 76.2897 24.1659 75.8348 24.1659H75.2284V28.0249ZM72.8579 31.815C73.2576 32.0355 73.9605 32.6006 74.4153 33.083L75.2284 33.965V36.7766V39.5882L74.4566 40.4151C73.9329 40.9802 73.3954 41.3936 72.7752 41.6969C71.962 42.1103 71.7277 42.1517 70.6665 42.1517C69.5915 42.1517 69.4261 42.1103 68.8059 41.7382C67.5517 40.9664 66.8764 39.5468 66.7248 37.3968C66.5732 35.0538 67.1382 33.1932 68.296 32.1595C69.1091 31.4567 69.5088 31.3326 70.9559 31.374C71.9482 31.4153 72.2377 31.4704 72.8579 31.815Z" fill="#0C50A3"/>
<path d="M96.6873 26.4675C96.5495 27.7492 96.453 28.9896 96.453 29.2239V29.6787H94.7991H93.1453V30.5746V31.4567L94.7302 31.498L96.3014 31.5393L96.3427 36.2942C96.3841 40.925 96.3979 41.0629 96.7011 41.7382C97.087 42.5651 97.7072 43.2405 98.4514 43.6402C98.9338 43.902 99.2232 43.9434 100.725 43.9434C102.145 43.9434 102.531 43.902 102.931 43.6815C103.193 43.5437 103.454 43.3507 103.51 43.268C103.675 43.0199 103.634 42.1517 103.454 41.9036C103.289 41.6969 103.206 41.6969 102.448 41.9587C101.828 42.1792 101.373 42.2344 100.615 42.193C99.6505 42.1517 99.5678 42.1241 99.1405 41.6417C98.8787 41.3661 98.6168 40.9113 98.5341 40.6081C98.4376 40.2911 98.3825 38.4029 98.3825 35.7705V31.4704H100.863H103.344V30.5746V29.6787H100.863H98.3825V26.9223V24.1659H97.6521H96.9216L96.6873 26.4675Z" fill="#0C50A3"/>
<path d="M83.5944 29.6787C81.7062 30.1611 80.328 31.7323 79.6802 34.1166C79.3494 35.3157 79.3494 38.2375 79.6802 39.4366C80.2177 41.435 81.2376 42.7581 82.8088 43.5161C83.6495 43.9158 83.8011 43.9434 85.2345 43.9434C86.7091 43.9434 86.7781 43.9296 87.7842 43.4334C88.4595 43.1026 89.0521 42.6754 89.4794 42.2206C89.8377 41.8485 90.1547 41.5315 90.1823 41.5315C90.2236 41.5315 90.2512 41.7244 90.2512 41.9449C90.2512 42.5238 90.5682 43.2405 90.9541 43.5161C91.2711 43.7366 92.5942 43.8331 92.5942 43.6264C92.5804 43.5712 92.4977 43.1578 92.3874 42.703C92.222 42.0552 92.1807 40.6908 92.1807 36.3218C92.1807 30.0784 92.1807 30.0784 91.2435 29.8303C90.2925 29.5547 90.2787 29.5685 90.1823 30.7538L90.0858 31.8288L89.3691 31.1259C88.9832 30.74 88.2941 30.2438 87.8393 30.0371C87.1226 29.6925 86.8194 29.6374 85.5652 29.5961C84.7659 29.5685 83.8838 29.6098 83.5944 29.6787ZM87.8669 31.8701C88.3355 32.132 89.0383 32.6557 89.4242 33.0692L90.1134 33.7996V36.6801V39.5606L89.6585 40.1395C88.5973 41.4763 87.1777 42.1517 85.4274 42.1517C84.3937 42.1517 84.1732 42.1103 83.6081 41.7658C82.4367 41.0767 81.7751 39.8776 81.527 37.9343C81.1411 34.8333 82.1748 32.256 84.1319 31.5256C84.4902 31.4015 85.0691 31.3464 85.8409 31.374C86.8608 31.4153 87.1226 31.4704 87.8669 31.8701Z" fill="#0C50A3"/>
<path d="M107.934 29.789C106.184 30.4092 105.067 31.6772 104.419 33.7721C104.171 34.5577 104.13 35.0538 104.116 36.7766C104.116 38.651 104.158 38.9542 104.488 39.9603C105.095 41.8071 106.018 42.8683 107.686 43.6264C108.278 43.902 108.595 43.9434 109.905 43.9434C111.379 43.9434 111.448 43.9296 112.454 43.4334C113.13 43.1026 113.722 42.6754 114.15 42.2206C114.508 41.8485 114.825 41.5315 114.853 41.5315C114.894 41.5315 114.921 41.7106 114.921 41.9312C114.921 42.4687 115.142 43.0475 115.5 43.4334C115.748 43.6815 115.941 43.7366 116.589 43.7366H117.389L117.154 43.2129C116.947 42.7719 116.906 41.9587 116.851 36.6388C116.796 32.1182 116.741 30.4919 116.603 30.2714C116.451 29.982 115.707 29.6787 115.183 29.6787C114.921 29.6787 114.784 30.2025 114.784 31.1948V31.8563L114.039 31.1397C113.64 30.74 112.937 30.2438 112.496 30.0233C111.793 29.6925 111.49 29.6236 110.167 29.5823C108.94 29.5409 108.513 29.5823 107.934 29.789ZM112.537 31.8701C113.006 32.132 113.709 32.6557 114.095 33.0692L114.784 33.7996V36.6939V39.5744L114.412 40.0292C113.736 40.8286 113.226 41.242 112.303 41.7106C111.49 42.1103 111.297 42.1517 110.153 42.1517C109.009 42.1517 108.857 42.1241 108.223 41.7382C106.928 40.9388 106.28 39.5193 106.142 37.2452C105.991 34.6679 106.804 32.5317 108.237 31.7874C108.968 31.4015 109.312 31.3464 110.511 31.374C111.531 31.4153 111.793 31.4704 112.537 31.8701Z" fill="#0C50A3"/>
<path d="M134.906 34.6407C134.906 37.7417 134.961 39.8642 135.057 40.319C135.291 41.4491 135.815 42.4277 136.504 43.0341C137.4 43.8197 138.199 44.054 139.84 43.9851C141.397 43.9299 142.224 43.6129 143.395 42.5793L144.098 41.9591L144.264 42.4277C144.346 42.6895 144.65 43.0754 144.911 43.3097L145.394 43.737H148.054H150.728L150.369 42.8825C149.928 41.7799 149.914 41.4353 149.887 35.0542L149.859 29.748H146.993H144.126L144.14 33.7035C144.153 38.0863 144.153 38.1 143.258 38.8856C142.403 39.6299 141.204 39.6023 140.846 38.8305C140.749 38.61 140.694 37.3971 140.694 35.3987C140.694 31.8153 140.584 31.0987 139.936 30.4509C139.343 29.8445 138.599 29.6791 136.573 29.6791H134.906V34.6407Z" fill="#0C50A3"/>
</svg>
