<svg width="42" height="42" viewBox="0 0 42 42" fill="none" xmlns="http://www.w3.org/2000/svg">
<path d="M18.0725 0.120746C12.7975 0.92201 10.0598 1.87908 7.41122 3.83772C5.98675 4.90607 2.9375 8.15564 2.9375 8.60079C2.9375 8.68982 3.98359 8.75659 5.27452 8.75659H7.61154L8.36829 7.64373C10.9279 3.90449 15.3571 1.01104 19.2744 0.521378C20.1202 0.410091 20.454 0.298804 20.276 0.16526C19.9644 -0.0350557 19.1186 -0.0573131 18.0725 0.120746Z" fill="white"/>
<path d="M21.9235 1.50037C16.782 2.32389 11.8854 5.707 9.61517 10.0472C9.21454 10.8039 8.85842 11.4717 8.8139 11.5162C8.76939 11.5607 8.3465 11.4271 7.83458 11.2268C5.74239 10.381 2.71539 11.2713 1.37995 13.141C0.133544 14.8548 0.0222573 15.5447 0.0890293 22.0216L0.155801 27.8976L1.78059 27.9643L3.38311 28.0311V22.2219C3.38311 15.8118 3.4944 15.1886 4.6963 14.5654C5.51982 14.1203 6.34334 14.1203 7.1446 14.5209C8.39101 15.1664 8.39101 15.1441 8.5023 21.7545L8.61359 27.8976L10.2384 27.9643L11.8409 28.0311V22.1107C11.8409 15.567 11.9077 15.1886 13.2209 14.5209C14.1779 14.0312 15.5134 14.2316 16.2701 14.9661L16.8488 15.5447L16.9601 21.7323L17.0714 27.8976L19.2971 27.9643C20.5213 27.9866 21.6341 27.9421 21.7677 27.8531C21.9012 27.7418 22.9251 26.4063 24.0602 24.8261C25.1953 23.268 26.2191 21.9994 26.3082 21.9994C26.4195 21.9994 27.3765 23.1568 28.4226 24.559C29.4687 25.9612 30.5593 27.2744 30.8709 27.4747C31.1825 27.675 31.8725 27.8976 32.4289 27.9643C32.9854 28.0089 33.4305 28.1201 33.4305 28.2092C33.4305 28.4985 31.8502 29.5891 30.3813 30.3236C27.4433 31.7926 27.5323 31.7926 13.0651 31.7926H0L0.0890293 36.845L0.155801 41.9197L10.9506 41.9865C18.1175 42.031 22.4576 41.9642 23.8599 41.8084C29.8026 41.0739 35.0108 37.9579 38.5942 32.9722C40.4638 30.3681 40.4193 30.1233 38.4384 32.1487C35.2556 35.376 32.2064 37.0453 27.3765 38.1805C25.9966 38.4921 24.1492 38.5588 14.6898 38.6256L3.60569 38.7146L3.58343 37.2679C3.56117 36.4666 3.53892 35.6654 3.51666 35.5096C3.4944 35.3093 6.05399 35.2202 15.2908 35.1089C28.3113 34.9754 28.1333 34.9977 31.3606 33.4619C36.0346 31.2584 38.9726 27.8085 40.5751 22.6671C40.998 21.3094 41.1093 20.4859 41.1093 18.3269C41.1093 16.7466 40.9758 15.1664 40.7977 14.4319C38.8836 6.97567 32.696 1.81197 25.2621 1.4336C24.0602 1.36682 22.5689 1.41134 21.9235 1.50037ZM26.9759 4.86123C34.4544 6.53053 39.1729 13.8309 37.5259 21.1759C37.1475 22.8897 35.7008 25.9167 34.944 26.5844C34.4989 27.0073 34.4766 26.985 33.8311 26.2283C31.9615 24.0025 28.5116 19.2617 28.6007 19.0391C28.6674 18.8833 29.2907 18.0153 30.0029 17.1028C32.2064 14.2538 34.5434 11.1155 34.5434 10.982C34.5434 10.9152 33.6531 10.8707 32.5847 10.8707C30.3367 10.8707 30.8709 10.4478 28.0888 14.3429C27.2875 15.4557 26.553 16.4128 26.464 16.4573C26.3527 16.5018 25.4624 15.4335 24.4608 14.098C23.2589 12.4732 22.3686 11.5162 21.8567 11.2713C21.0332 10.8484 18.2955 10.7149 18.2955 11.071C18.2955 11.1823 19.4974 12.8739 20.9442 14.8325C22.4131 16.7912 23.7263 18.594 23.8821 18.8388C24.1269 19.2172 23.9489 19.5511 22.4131 21.5765C21.4561 22.8452 20.588 23.9135 20.499 23.958C20.3877 24.0025 20.2987 22.1997 20.2987 19.9517C20.2987 17.7037 20.1874 15.5002 20.0761 15.0551C19.72 13.8087 18.5626 12.451 17.1827 11.672C16.1588 11.0933 15.7137 10.982 14.4673 10.982C13.6215 10.982 12.9538 10.9152 12.9538 10.8262C12.9538 10.6036 14.4673 8.82303 15.2463 8.13305C16.8933 6.66407 19.4307 5.37314 21.5228 4.88348C22.747 4.6164 25.7517 4.59414 26.9759 4.86123Z" fill="white"/>
</svg>
