<svg width="651" height="392" viewBox="0 0 651 392" fill="none" xmlns="http://www.w3.org/2000/svg">
<g clip-path="url(#clip0_16_377)">
<path opacity="0.18" d="M162.365 93.841C134.894 103.287 105.075 118.803 98.0127 147.006C93.9738 163.149 98.3697 180.794 92.7121 196.429C84.6899 218.578 59.0203 230.249 50.0776 252.041C46.3005 261.257 45.8879 271.481 46.245 281.436C46.9115 300.113 50.6251 319.76 62.9957 333.758C81.8333 355.098 113.914 356.798 142.345 356.941C290.465 357.544 438.584 356.859 586.703 354.883C592.416 354.804 598.661 354.541 602.978 350.784C606.072 348.09 607.612 344.039 608.707 340.082C614.84 317.885 610.881 292.749 622.45 272.84C628.219 262.917 637.36 255.322 643.335 245.526C656.721 223.576 651.429 193.887 636.312 173.128C621.196 152.368 598.058 138.966 574.65 128.36C551.242 117.754 526.691 109.341 504.997 95.5888C463.1 68.9189 433.344 23.2934 386.663 6.40328C346.194 -8.26236 300.838 3.6068 266.845 28.2031C252.435 38.6264 241.302 52.4578 227.456 63.4451C208.174 78.7225 185.258 85.9679 162.365 93.841Z" fill="#0C50A3"/>
<path opacity="0.18" d="M14.3067 364.393C8.89509 364.703 2.52332 365.6 0.0238037 370.407C7.16527 377.446 17.8775 379.146 27.8438 380.329C82.6426 386.788 137.941 387.766 193.153 388.743L358.811 391.642C393.376 392.254 428.17 392.842 462.259 387.09C483.866 383.444 505.044 377.271 526.818 374.84C547.623 372.512 568.706 373.632 589.504 371.169C594.678 370.558 600.089 369.58 604.152 366.339C608.215 363.098 610.278 356.75 607.278 352.484C604.898 349.131 600.486 348.146 596.455 347.487C581.379 345.04 566.167 343.721 550.94 342.791C409.452 334.084 268.797 357.854 127.531 360.142C89.6095 360.762 52.2041 362.208 14.3067 364.393Z" fill="#1D2741"/>
<path d="M133.038 166.986C133.038 166.986 136.672 140.11 138.79 135.661C140.909 131.212 141.449 112.503 165.682 125.174C165.682 125.174 169.237 128.765 167.428 133.19C165.619 137.616 165.793 140.801 167.023 142.398C168.253 143.995 164.857 145.687 164.857 145.687C164.857 145.687 164.063 145.417 162.976 150.565C161.889 155.713 151.939 155.387 151.939 155.387C151.939 155.387 146.598 158.12 147.884 166.057C149.169 173.994 135.529 173.167 133.038 166.986Z" fill="url(#paint0_linear_16_377)"/>
<path d="M131.53 138.021C131.181 133.564 132.323 128.781 135.497 125.659C136.073 125.178 136.604 124.646 137.084 124.07C137.512 123.355 137.86 122.596 138.124 121.806C138.978 119.871 140.248 118.149 141.843 116.762C143.438 115.375 145.319 114.357 147.352 113.782C151.462 112.676 155.834 113.105 159.651 114.989C161.611 115.935 163.413 117.206 165.444 117.985C167.475 118.763 169.895 118.978 171.744 117.826C171.912 118.364 171.946 118.935 171.842 119.489C171.738 120.043 171.5 120.563 171.149 121.003L173.982 120.082C174.057 121.757 173.695 123.423 172.931 124.915C172.167 126.407 171.028 127.674 169.626 128.59L170.729 128.424C169.832 129.893 167.721 129.893 166.039 129.576C163.912 129.185 161.83 128.578 159.826 127.764C157.041 126.636 153.764 125.127 151.232 126.763C148.701 128.4 148.725 132.078 147.916 135.018C147.355 137.068 146.259 138.933 144.742 140.42C144.543 139.399 144.147 138.428 143.575 137.56C143.285 137.128 142.878 136.786 142.402 136.576C141.926 136.365 141.4 136.293 140.885 136.368C139.124 136.781 138.751 139.133 138.981 140.928C139.179 142.517 139.774 144.313 141.282 144.821C139.637 146.946 138.336 149.316 137.426 151.844L136.553 151.566C136.46 151.785 136.285 151.959 136.065 152.05C135.845 152.14 135.598 152.141 135.378 152.051C134.585 151.701 133.672 147.062 133.339 146.068C132.41 143.47 131.802 140.767 131.53 138.021Z" fill="#3F3D56"/>
<path d="M279.81 365.704C284.517 365.704 288.333 361.883 288.333 357.171C288.333 352.459 284.517 348.639 279.81 348.639C275.104 348.639 271.288 352.459 271.288 357.171C271.288 361.883 275.104 365.704 279.81 365.704Z" fill="#0C50A3"/>
<path d="M284.095 357.171C284.095 358.02 283.844 358.85 283.373 359.555C282.902 360.261 282.232 360.811 281.448 361.135C280.665 361.46 279.803 361.544 278.972 361.378C278.14 361.212 277.377 360.803 276.778 360.202C276.179 359.601 275.771 358.836 275.607 358.003C275.443 357.17 275.529 356.308 275.854 355.524C276.18 354.74 276.73 354.071 277.436 353.6C278.141 353.13 278.971 352.879 279.818 352.881C280.953 352.883 282.041 353.336 282.843 354.14C283.645 354.945 284.095 356.035 284.095 357.171Z" fill="url(#paint1_linear_16_377)"/>
<path d="M332.705 365.704C337.412 365.704 341.227 361.883 341.227 357.171C341.227 352.459 337.412 348.639 332.705 348.639C327.998 348.639 324.183 352.459 324.183 357.171C324.183 361.883 327.998 365.704 332.705 365.704Z" fill="#0C50A3"/>
<path d="M332.705 361.453C335.067 361.453 336.982 359.536 336.982 357.171C336.982 354.806 335.067 352.889 332.705 352.889C330.343 352.889 328.428 354.806 328.428 357.171C328.428 359.536 330.343 361.453 332.705 361.453Z" fill="url(#paint2_linear_16_377)"/>
<path d="M518.55 365.704C523.256 365.704 527.072 361.883 527.072 357.171C527.072 352.459 523.256 348.639 518.55 348.639C513.843 348.639 510.028 352.459 510.028 357.171C510.028 361.883 513.843 365.704 518.55 365.704Z" fill="#0C50A3"/>
<path d="M518.55 361.453C520.912 361.453 522.827 359.536 522.827 357.171C522.827 354.806 520.912 352.889 518.55 352.889C516.188 352.889 514.273 354.806 514.273 357.171C514.273 359.536 516.188 361.453 518.55 361.453Z" fill="url(#paint3_linear_16_377)"/>
<path d="M571.436 365.704C576.143 365.704 579.958 361.883 579.958 357.171C579.958 352.459 576.143 348.639 571.436 348.639C566.73 348.639 562.914 352.459 562.914 357.171C562.914 361.883 566.73 365.704 571.436 365.704Z" fill="#0C50A3"/>
<path d="M571.436 361.453C573.798 361.453 575.713 359.536 575.713 357.171C575.713 354.806 573.798 352.889 571.436 352.889C569.074 352.889 567.159 354.806 567.159 357.171C567.159 359.536 569.074 361.453 571.436 361.453Z" fill="url(#paint4_linear_16_377)"/>
<path d="M231.344 164.269C232.875 163.07 234.93 162.784 236.589 161.783C237.382 161.314 238.033 160.702 238.787 160.194C240.68 158.842 242.898 158.019 245.214 157.811C245.595 158.51 243.5 160.281 242.619 160.774C245.793 160.448 247.825 160.122 251.03 159.979C252.316 159.979 251.927 160.996 251.435 161.211C250.538 161.608 247.841 162.379 246.944 162.8C249.077 162.036 251.293 161.527 253.546 161.282C254.498 161.433 254.101 162.458 253.443 162.696C251.115 163.643 248.73 164.439 246.301 165.08C247.944 164.778 250.221 164.103 251.856 164.095C251.976 164.092 252.094 164.127 252.192 164.197C252.29 164.267 252.363 164.366 252.399 164.481C252.436 164.596 252.434 164.719 252.395 164.833C252.356 164.946 252.281 165.044 252.181 165.112C251.657 165.458 251.084 165.725 250.483 165.906L246.182 167.495C247.549 167.275 248.932 167.174 250.316 167.193C251.165 167.257 251.403 168.138 249.285 168.853C247.414 169.412 245.591 170.118 243.833 170.967C239.914 173.001 235.208 172.341 230.852 171.634C231.106 169.116 231.114 166.732 231.344 164.269Z" fill="url(#paint5_linear_16_377)"/>
<path d="M34.287 346.2L31.5177 348.647C31.3403 348.795 31.1959 348.979 31.0936 349.186C30.9914 349.394 30.9335 349.62 30.9238 349.851C30.9141 350.082 30.9527 350.313 31.0372 350.528C31.1217 350.744 31.2503 350.939 31.4145 351.101L36.3104 356.17C36.6911 356.546 37.1985 356.766 37.733 356.787C38.2675 356.807 38.7903 356.627 39.1987 356.281L41.9283 353.898L34.287 346.2Z" fill="url(#paint6_linear_16_377)"/>
<path d="M168.785 343.61L168.158 347.932C168.128 348.22 168.157 348.512 168.242 348.79C168.328 349.067 168.468 349.324 168.654 349.547C168.84 349.769 169.07 349.951 169.328 350.083C169.586 350.215 169.868 350.294 170.157 350.315L179.33 351.562C179.98 351.672 180.648 351.528 181.195 351.16C181.743 350.792 182.129 350.228 182.274 349.584L182.925 345.358L168.785 343.61Z" fill="url(#paint7_linear_16_377)"/>
<path d="M106.535 247.33C102.956 246.535 99.3457 248.553 98.6474 251.818C95.8226 265.022 97.4175 295.061 83.571 303.402C69.7245 311.744 42.5155 333.703 35.5169 342.434C34.6274 343.49 34.1845 344.852 34.2823 346.231C34.3801 347.609 35.0109 348.895 36.0406 349.814L38.6829 352.293C39.6773 353.185 40.9076 353.772 42.2263 353.982C43.545 354.191 44.8962 354.016 46.118 353.477C59.4249 347.606 100.076 329.103 107.051 318.974C115.438 306.819 146.003 260.089 146.003 258.19C146.035 256.712 119.358 250.325 106.535 247.33Z" fill="#0C50A3"/>
<path d="M106.535 247.33C102.956 246.535 99.3457 248.553 98.6474 251.818C95.8226 265.022 97.4175 295.061 83.571 303.402C69.7245 311.744 42.5155 333.703 35.5169 342.434C34.6274 343.49 34.1845 344.852 34.2823 346.231C34.3801 347.609 35.0109 348.895 36.0406 349.814L38.6829 352.293C39.6773 353.185 40.9076 353.772 42.2263 353.982C43.545 354.192 44.8962 354.016 46.118 353.477C59.4249 347.606 100.076 329.103 107.051 318.974C115.438 306.819 146.003 260.089 146.003 258.19C146.035 256.712 119.358 250.325 106.535 247.33Z" fill="url(#paint8_linear_16_377)"/>
<path d="M163.055 185.426C163.055 185.426 191.709 186.594 210.157 180.659C228.606 174.724 231.582 172.715 231.582 172.715L230.645 163.912C230.645 163.912 197.771 170.45 186.821 168.218C175.87 165.985 161.651 172.651 161.651 172.651L163.055 185.426Z" fill="#0C50A3"/>
<path d="M163.055 185.426C163.055 185.426 191.709 186.594 210.157 180.659C228.606 174.724 231.582 172.715 231.582 172.715L230.645 163.912C230.645 163.912 197.771 170.45 186.821 168.218C175.87 165.985 161.651 172.651 161.651 172.651L163.055 185.426Z" fill="url(#paint9_linear_16_377)"/>
<path d="M620.847 46.9682V248.394C620.847 251.017 620.331 253.614 619.329 256.036C618.326 258.459 616.856 260.66 615.004 262.514C613.151 264.368 610.952 265.839 608.532 266.842C606.112 267.844 603.518 268.36 600.899 268.359H254.45C249.161 268.359 244.088 266.256 240.347 262.512C236.607 258.768 234.504 253.69 234.502 248.394V46.9682C234.502 41.6711 236.604 36.591 240.345 32.8454C244.086 29.0998 249.16 26.9956 254.45 26.9956H600.867C603.49 26.9904 606.087 27.5032 608.512 28.5046C610.936 29.5061 613.14 30.9766 614.995 32.8318C616.851 34.6871 618.324 36.8907 619.328 39.3164C620.332 41.7421 620.848 44.3424 620.847 46.9682Z" fill="#0C50A3"/>
<path d="M620.847 46.9682V248.394C620.847 251.017 620.331 253.614 619.328 256.036C618.326 258.459 616.856 260.66 615.004 262.514C613.151 264.368 610.952 265.839 608.532 266.842C606.112 267.844 603.518 268.36 600.899 268.359H254.45C249.161 268.359 244.088 266.256 240.347 262.512C236.607 258.768 234.504 253.69 234.502 248.394V46.9682C234.502 41.6711 236.604 36.591 240.345 32.8454C244.086 29.0998 249.16 26.9956 254.45 26.9956H600.867C603.49 26.9904 606.087 27.5032 608.512 28.5046C610.936 29.5061 613.14 30.9766 614.996 32.8318C616.851 34.6871 618.324 36.8907 619.328 39.3164C620.332 41.7421 620.848 44.3424 620.847 46.9682Z" fill="url(#paint10_linear_16_377)"/>
<path d="M596.614 17.0967H255.609C251.235 17.0967 247.69 20.6465 247.69 25.0253V49.7726C247.69 54.1515 251.235 57.7013 255.609 57.7013H596.614C600.987 57.7013 604.533 54.1515 604.533 49.7726V25.0253C604.533 20.6465 600.987 17.0967 596.614 17.0967Z" fill="#0C50A3"/>
<path d="M596.614 17.0967H255.609C251.235 17.0967 247.69 20.6465 247.69 25.0253V49.7726C247.69 54.1515 251.235 57.7013 255.609 57.7013H596.614C600.987 57.7013 604.533 54.1515 604.533 49.7726V25.0253C604.533 20.6465 600.987 17.0967 596.614 17.0967Z" fill="url(#paint11_linear_16_377)"/>
<path d="M620.847 47.3257V248.752C620.847 254.049 618.745 259.129 615.004 262.875C611.263 266.62 606.189 268.724 600.899 268.724L267.67 268.359C262.381 268.359 257.308 266.256 253.567 262.512C249.826 258.768 247.724 253.69 247.722 248.394V47.3257C247.722 42.0286 249.823 36.9485 253.564 33.2029C257.305 29.4573 262.379 27.3531 267.67 27.3531H600.938C606.223 27.3615 611.288 29.4697 615.021 33.2146C618.754 36.9595 620.849 42.0349 620.847 47.3257Z" fill="#0C50A3"/>
<path d="M620.847 47.3257V248.752C620.847 254.049 618.745 259.129 615.004 262.875C611.263 266.62 606.189 268.724 600.899 268.724L267.67 268.359C256.656 268.359 247.722 259.421 242.524 249.8V48.716C247.722 36.2748 256.656 27.3372 267.67 27.3372H600.938C606.226 27.3456 611.293 29.456 615.026 33.2044C618.76 36.9527 620.854 42.0321 620.847 47.3257Z" fill="url(#paint12_linear_16_377)"/>
<path d="M123.936 167.598C123.936 167.598 130.348 159.137 149.28 159.225C168.213 159.312 185.043 159.527 189.86 157.954C194.676 156.381 222.798 146.172 222.798 146.172L226.86 156.881C226.86 156.881 200.754 172.579 188.4 175.153C173.442 178.276 162.27 182.304 158.247 195.865C154.224 209.426 152.486 236.763 146.844 241.943C141.203 247.123 103.996 255.211 99.8694 246.273C95.7432 237.335 105.075 198.646 123.936 167.598Z" fill="#0C50A3"/>
<path d="M226.861 156.881C226.861 156.881 223.687 158.764 219.116 161.338C210.388 166.184 196.478 173.477 188.4 175.161C173.442 178.284 162.27 182.312 158.247 195.873C154.533 208.266 152.796 232.227 148.201 240.148C147.84 240.803 147.382 241.4 146.844 241.92C141.211 247.068 103.996 255.187 99.8694 246.249C95.7432 237.312 105.122 198.646 123.976 167.598C123.976 167.598 130.387 159.137 149.32 159.225C168.253 159.312 185.083 159.527 189.899 157.954C194.716 156.381 222.838 146.172 222.838 146.172L226.861 156.881Z" fill="url(#paint13_linear_16_377)"/>
<path d="M99.8298 245.804C99.8298 245.804 94.3785 264.919 107.622 271.441C120.865 277.964 170.38 287.474 170.38 287.474C170.38 287.474 161.722 322.771 164.571 336.73L165.674 342.156C165.917 343.131 166.475 343.999 167.262 344.624C168.048 345.249 169.019 345.596 170.022 345.612L180.719 346.168C181.643 346.239 182.567 346.039 183.379 345.591C184.191 345.144 184.855 344.469 185.289 343.649C191.137 331.733 202.746 284.502 192.621 271.418C181.02 256.45 146.805 241.896 146.805 241.896L99.8298 245.804Z" fill="#0C50A3"/>
<path d="M185.448 343.34L185.289 343.673C184.944 344.336 184.444 344.906 183.832 345.335C183.22 345.764 182.514 346.038 181.774 346.136C181.425 346.191 181.072 346.209 180.719 346.192L178.727 346.088L169.999 345.636C168.995 345.62 168.024 345.273 167.238 344.648C166.451 344.023 165.893 343.155 165.65 342.18L164.587 336.754C161.738 322.771 170.395 287.497 170.395 287.497C170.395 287.497 120.889 277.964 107.638 271.465C94.3864 264.967 99.8456 245.828 99.8456 245.828L116.858 244.422L146.821 241.943C146.821 241.943 181.036 256.498 192.637 271.465C202.675 284.407 191.344 330.867 185.448 343.34Z" fill="url(#paint14_linear_16_377)"/>
<path d="M185.448 343.069L181.774 345.842L180.981 346.446C180.188 346.411 179.416 346.187 178.727 345.794C178.197 345.505 177.736 345.105 177.375 344.621C177.013 344.137 176.76 343.581 176.632 342.99L175.529 337.564C174.291 331.494 182.266 307.375 183.71 297.841C184.674 291.445 183.178 284.92 179.524 279.585C175.87 274.25 170.33 270.502 164.024 269.098C149.495 265.833 132.569 261.59 125.618 258.174C119.453 255.139 117.342 249.371 116.842 244.072L146.805 241.594C146.805 241.594 181.02 256.148 192.621 271.116C202.675 284.137 191.344 330.597 185.448 343.069Z" fill="url(#paint15_linear_16_377)"/>
<path d="M170.141 350.323C170.141 350.323 164.69 365.1 165.801 366.379C166.912 367.658 210.134 366.379 210.134 366.379C210.134 366.379 212.165 362.407 202.429 359.388C192.693 356.369 181.354 355.558 181.354 355.558L179.314 351.586L170.141 350.323ZM31.4146 351.101L23.2812 354.033L21.2578 356.774L37.4848 372.059H56.3541C56.3541 372.059 53.9181 364.71 46.6179 364.377C39.3178 364.043 36.3025 356.186 36.3025 356.186L31.4146 351.101Z" fill="#222A72"/>
<path d="M223.306 147.228C224.29 145.552 226.107 144.543 227.273 143.01C227.829 142.287 228.233 141.477 228.749 140.73C230.013 138.77 231.777 137.185 233.859 136.138C234.47 136.646 233.153 139.061 232.518 139.84C235.375 138.378 237.128 137.337 240.048 136.011C241.262 135.582 241.255 136.638 240.882 137.012C240.191 137.711 237.954 139.395 237.255 140.102C238.97 138.616 240.853 137.336 242.865 136.289C243.802 136.09 243.802 137.186 243.278 137.647C241.46 139.382 239.533 140.998 237.509 142.486C238.93 141.604 240.81 140.15 242.365 139.538C242.472 139.502 242.586 139.498 242.694 139.528C242.802 139.558 242.899 139.621 242.971 139.706C243.043 139.792 243.087 139.898 243.098 140.01C243.109 140.122 243.086 140.234 243.032 140.333C242.674 140.854 242.241 141.32 241.747 141.715L238.303 144.742C239.501 144.044 240.757 143.448 242.056 142.962C242.849 142.708 243.405 143.447 241.691 144.885C240.148 146.09 238.704 147.419 237.374 148.857C234.462 152.17 229.836 153.266 225.52 154.188C224.893 151.828 224.004 149.612 223.306 147.228Z" fill="url(#paint16_linear_16_377)"/>
<path d="M308.138 350.752C301.989 350.752 297.029 345.763 297.029 341.218V284.121C297.029 276.343 302.02 271.346 308.138 271.346C311.085 271.346 313.91 272.518 315.993 274.604C318.077 276.69 319.247 279.519 319.247 282.468V339.566C319.256 341.032 318.974 342.485 318.42 343.842C317.865 345.199 317.048 346.432 316.016 347.472C314.984 348.511 313.756 349.336 312.404 349.899C311.052 350.462 309.602 350.752 308.138 350.752ZM544.076 350.752C541.13 350.752 538.304 349.58 536.221 347.494C534.138 345.408 532.967 342.579 532.967 339.63V282.5C532.967 279.55 534.138 276.721 536.221 274.636C538.304 272.55 541.13 271.378 544.076 271.378C547.023 271.378 549.848 272.55 551.932 274.636C554.015 276.721 555.185 279.55 555.185 282.5V339.598C555.189 341.061 554.905 342.511 554.349 343.864C553.792 345.217 552.975 346.447 551.943 347.483C550.911 348.519 549.685 349.341 548.335 349.902C546.985 350.463 545.538 350.752 544.076 350.752Z" fill="#0C50A3"/>
<path d="M308.138 350.752C301.989 350.752 297.029 345.763 297.029 341.218V284.121C297.029 276.343 302.021 271.346 308.138 271.346C311.085 271.346 313.91 272.518 315.994 274.604C318.077 276.69 319.247 279.519 319.247 282.469V339.566C319.256 341.032 318.975 342.485 318.42 343.842C317.865 345.199 317.048 346.432 316.016 347.472C314.984 348.511 313.756 349.336 312.404 349.899C311.052 350.462 309.603 350.752 308.138 350.752Z" fill="url(#paint17_linear_16_377)"/>
<path d="M544.076 350.752C541.13 350.752 538.305 349.58 536.221 347.494C534.138 345.408 532.967 342.579 532.967 339.63V282.5C532.967 279.55 534.138 276.721 536.221 274.636C538.305 272.55 541.13 271.378 544.076 271.378C547.023 271.378 549.848 272.55 551.932 274.636C554.015 276.721 555.185 279.55 555.185 282.5V339.598C555.19 341.061 554.905 342.511 554.349 343.864C553.792 345.217 552.975 346.447 551.943 347.483C550.911 348.519 549.685 349.341 548.335 349.902C546.985 350.463 545.538 350.752 544.076 350.752Z" fill="url(#paint18_linear_16_377)"/>
<path d="M340.219 351.999H272.431C271.734 351.999 271.066 351.722 270.574 351.229C270.081 350.736 269.804 350.067 269.804 349.37C269.804 348.672 270.081 348.003 270.574 347.51C271.066 347.017 271.734 346.74 272.431 346.74H340.219C340.916 346.74 341.584 347.017 342.076 347.51C342.569 348.003 342.846 348.672 342.846 349.37C342.846 350.067 342.569 350.736 342.076 351.229C341.584 351.722 340.916 351.999 340.219 351.999ZM578.887 351.999H511.099C510.402 351.999 509.734 351.722 509.241 351.229C508.749 350.736 508.472 350.067 508.472 349.37C508.472 348.672 508.749 348.003 509.241 347.51C509.734 347.017 510.402 346.74 511.099 346.74H578.887C579.584 346.74 580.252 347.017 580.744 347.51C581.237 348.003 581.513 348.672 581.513 349.37C581.513 350.067 581.237 350.736 580.744 351.229C580.252 351.722 579.584 351.999 578.887 351.999Z" fill="#0C50A3"/>
<path d="M578.887 351.999H511.099C510.402 351.999 509.734 351.722 509.242 351.229C508.749 350.736 508.472 350.067 508.472 349.37C508.472 348.672 508.749 348.003 509.242 347.51C509.734 347.017 510.402 346.74 511.099 346.74H578.887C579.584 346.74 580.252 347.017 580.744 347.51C581.237 348.003 581.514 348.672 581.514 349.37C581.514 350.067 581.237 350.736 580.744 351.229C580.252 351.722 579.584 351.999 578.887 351.999Z" fill="url(#paint19_linear_16_377)"/>
<path d="M340.219 351.999H272.431C271.734 351.999 271.066 351.722 270.574 351.229C270.081 350.736 269.805 350.067 269.805 349.37C269.805 348.672 270.081 348.003 270.574 347.51C271.066 347.017 271.734 346.74 272.431 346.74H340.219C340.916 346.74 341.584 347.017 342.077 347.51C342.569 348.003 342.846 348.672 342.846 349.37C342.846 350.067 342.569 350.736 342.077 351.229C341.584 351.722 340.916 351.999 340.219 351.999Z" fill="url(#paint20_linear_16_377)"/>
<path d="M492.944 181.549V169.783C492.95 168.801 492.762 167.828 492.391 166.92C492.02 166.011 491.474 165.185 490.783 164.488C490.092 163.792 489.27 163.24 488.365 162.862C487.46 162.485 486.489 162.291 485.508 162.291H320.826C318.141 162.291 315.566 161.223 313.667 159.322C311.768 157.421 310.701 154.843 310.701 152.154V136.344C310.701 133.656 311.768 131.077 313.667 129.176C315.566 127.275 318.141 126.207 320.826 126.207H486.183C488.153 126.207 490.042 125.425 491.438 124.033C492.833 122.641 493.62 120.751 493.626 118.779V106.012C493.63 104.741 493.959 103.492 494.582 102.384C495.205 101.276 496.101 100.347 497.185 99.6839C498.269 99.0212 499.504 98.6473 500.773 98.598C502.041 98.5487 503.302 98.8256 504.433 99.4022C504.576 99.4747 504.711 99.5597 504.838 99.6564L553.94 136.44C555.113 137.085 556.09 138.035 556.769 139.189C557.448 140.344 557.802 141.661 557.796 143.001C557.789 144.341 557.422 145.654 556.732 146.802C556.042 147.95 555.055 148.891 553.876 149.524L504.108 187.992C503.962 188.105 503.805 188.203 503.64 188.286C502.503 188.842 501.243 189.098 499.979 189.03C498.716 188.961 497.49 188.572 496.419 187.897C495.348 187.223 494.467 186.285 493.859 185.175C493.251 184.064 492.935 182.816 492.944 181.549Z" fill="#0C50A3"/>
<path d="M254.109 47.5402C254.109 47.5402 254.688 31.6511 273.05 30.3959H314.645C314.645 30.3959 290.634 34.2093 288.333 47.5402C286.031 60.8712 288.333 242.277 288.333 242.277C288.333 242.277 291.721 263.513 324.183 264.577H267.638C267.638 264.577 255.053 261.161 254.109 252.732C253.165 244.303 254.109 47.5402 254.109 47.5402Z" fill="#0C50A3"/>
<path d="M492.944 181.549V169.783C492.95 168.801 492.762 167.828 492.391 166.92C492.02 166.011 491.474 165.185 490.783 164.488C490.092 163.792 489.27 163.24 488.365 162.862C487.46 162.485 486.489 162.291 485.508 162.291H320.826C318.141 162.291 315.566 161.223 313.667 159.322C311.768 157.421 310.701 154.843 310.701 152.154V136.344C310.701 133.656 311.768 131.077 313.667 129.176C315.566 127.275 318.141 126.207 320.826 126.207H486.183C488.153 126.207 490.042 125.425 491.438 124.033C492.833 122.641 493.62 120.751 493.626 118.779V106.012C493.63 104.741 493.959 103.492 494.582 102.384C495.205 101.276 496.101 100.347 497.185 99.6839C498.269 99.0212 499.504 98.6473 500.773 98.598C502.041 98.5487 503.302 98.8256 504.433 99.4022C504.576 99.4747 504.711 99.5597 504.838 99.6564L553.94 136.44C555.113 137.085 556.09 138.035 556.769 139.189C557.448 140.344 557.802 141.661 557.796 143.001C557.789 144.341 557.422 145.654 556.732 146.802C556.042 147.95 555.055 148.891 553.876 149.524L504.108 187.992C503.962 188.105 503.805 188.203 503.64 188.286C502.503 188.842 501.243 189.098 499.979 189.03C498.716 188.961 497.49 188.572 496.419 187.897C495.348 187.223 494.467 186.285 493.859 185.175C493.25 184.064 492.935 182.816 492.944 181.549Z" fill="url(#paint21_linear_16_377)"/>
<path d="M254.109 47.5402C254.109 47.5402 254.688 31.6511 273.05 30.3959H314.645C314.645 30.3959 290.634 34.2093 288.333 47.5402C286.031 60.8712 288.333 242.277 288.333 242.277C288.333 242.277 291.721 263.513 324.183 264.577H267.638C267.638 264.577 255.053 261.161 254.109 252.732C253.165 244.303 254.109 47.5402 254.109 47.5402Z" fill="url(#paint22_linear_16_377)"/>
<path d="M615.872 260.859H240.477C236.252 260.859 232.828 264.288 232.828 268.518V273.451C232.828 277.681 236.252 281.11 240.477 281.11H615.872C620.097 281.11 623.521 277.681 623.521 273.451V268.518C623.521 264.288 620.097 260.859 615.872 260.859Z" fill="#0C50A3"/>
<path d="M615.872 260.859H240.477C236.252 260.859 232.828 264.288 232.828 268.518V273.451C232.828 277.681 236.252 281.11 240.477 281.11H615.872C620.097 281.11 623.521 277.681 623.521 273.451V268.518C623.521 264.288 620.097 260.859 615.872 260.859Z" fill="url(#paint23_linear_16_377)"/>
<path d="M225.535 154.204L226.861 156.881C218.132 161.727 196.478 173.477 188.4 175.154C173.442 178.276 162.27 182.304 158.247 195.865C154.533 208.258 152.796 232.219 148.201 240.14L146.844 241.641L116.842 244.152C116.842 244.152 127.158 191.368 135.093 185.545C143.028 179.722 161.056 175.471 173.926 171.833C186.797 168.194 225.535 154.204 225.535 154.204Z" fill="url(#paint24_linear_16_377)"/>
</g>
<defs>
<linearGradient id="paint0_linear_16_377" x1="139.155" y1="145.711" x2="171.308" y2="148.278" gradientUnits="userSpaceOnUse">
<stop stop-color="#ECC4D7"/>
<stop offset="0.42" stop-color="#EFD4D1"/>
<stop offset="1" stop-color="#F2EAC9"/>
</linearGradient>
<linearGradient id="paint1_linear_16_377" x1="279.438" y1="347.701" x2="280.281" y2="368.81" gradientUnits="userSpaceOnUse">
<stop offset="0.09" stop-color="#68E1FD"/>
<stop offset="0.2" stop-color="#65D5F1"/>
<stop offset="0.4" stop-color="#5DB7D2"/>
<stop offset="0.66" stop-color="#51859F"/>
<stop offset="0.97" stop-color="#404059"/>
<stop offset="0.99" stop-color="#3F3D56"/>
</linearGradient>
<linearGradient id="paint2_linear_16_377" x1="332.237" y1="345.588" x2="333.088" y2="366.689" gradientUnits="userSpaceOnUse">
<stop offset="0.09" stop-color="#68E1FD"/>
<stop offset="0.2" stop-color="#65D5F1"/>
<stop offset="0.4" stop-color="#5DB7D2"/>
<stop offset="0.66" stop-color="#51859F"/>
<stop offset="0.97" stop-color="#404059"/>
<stop offset="0.99" stop-color="#3F3D56"/>
</linearGradient>
<linearGradient id="paint3_linear_16_377" x1="517.788" y1="338.152" x2="518.631" y2="359.26" gradientUnits="userSpaceOnUse">
<stop offset="0.09" stop-color="#68E1FD"/>
<stop offset="0.2" stop-color="#65D5F1"/>
<stop offset="0.4" stop-color="#5DB7D2"/>
<stop offset="0.66" stop-color="#51859F"/>
<stop offset="0.97" stop-color="#404059"/>
<stop offset="0.99" stop-color="#3F3D56"/>
</linearGradient>
<linearGradient id="paint4_linear_16_377" x1="570.595" y1="336.039" x2="571.438" y2="357.147" gradientUnits="userSpaceOnUse">
<stop offset="0.09" stop-color="#68E1FD"/>
<stop offset="0.2" stop-color="#65D5F1"/>
<stop offset="0.4" stop-color="#5DB7D2"/>
<stop offset="0.66" stop-color="#51859F"/>
<stop offset="0.97" stop-color="#404059"/>
<stop offset="0.99" stop-color="#3F3D56"/>
</linearGradient>
<linearGradient id="paint5_linear_16_377" x1="232.082" y1="162.264" x2="251.046" y2="169.642" gradientUnits="userSpaceOnUse">
<stop stop-color="#ECC4D7"/>
<stop offset="0.42" stop-color="#EFD4D1"/>
<stop offset="1" stop-color="#F2EAC9"/>
</linearGradient>
<linearGradient id="paint6_linear_16_377" x1="32.4381" y1="351.483" x2="43.4439" y2="351.483" gradientUnits="userSpaceOnUse">
<stop stop-color="#183866"/>
<stop offset="1" stop-color="#1A7FC1"/>
</linearGradient>
<linearGradient id="paint7_linear_16_377" x1="181.522" y1="359.652" x2="192.179" y2="351.024" gradientUnits="userSpaceOnUse">
<stop stop-color="#183866"/>
<stop offset="1" stop-color="#1A7FC1"/>
</linearGradient>
<linearGradient id="paint8_linear_16_377" x1="71.7955" y1="242.452" x2="97.49" y2="326.051" gradientUnits="userSpaceOnUse">
<stop/>
<stop offset="0.99" stop-opacity="0"/>
</linearGradient>
<linearGradient id="paint9_linear_16_377" x1="105.868" y1="169.783" x2="226.242" y2="176.203" gradientUnits="userSpaceOnUse">
<stop/>
<stop offset="0.99" stop-opacity="0"/>
</linearGradient>
<linearGradient id="paint10_linear_16_377" x1="451.364" y1="50.0983" x2="420.856" y2="175.367" gradientUnits="userSpaceOnUse">
<stop offset="0.01"/>
<stop offset="0.99" stop-opacity="0"/>
</linearGradient>
<linearGradient id="paint11_linear_16_377" x1="-103.154" y1="-59.6" x2="444.631" y2="40.553" gradientUnits="userSpaceOnUse">
<stop/>
<stop offset="0.99" stop-opacity="0"/>
</linearGradient>
<linearGradient id="paint12_linear_16_377" x1="-77.9372" y1="384.707" x2="567.782" y2="87.0461" gradientUnits="userSpaceOnUse">
<stop offset="0.01"/>
<stop offset="0.99" stop-opacity="0"/>
</linearGradient>
<linearGradient id="paint13_linear_16_377" x1="-23.8128" y1="206.94" x2="167.508" y2="198.253" gradientUnits="userSpaceOnUse">
<stop/>
<stop offset="0.99" stop-opacity="0"/>
</linearGradient>
<linearGradient id="paint14_linear_16_377" x1="35.2789" y1="401.669" x2="174.355" y2="263.585" gradientUnits="userSpaceOnUse">
<stop/>
<stop offset="0.99" stop-opacity="0"/>
</linearGradient>
<linearGradient id="paint15_linear_16_377" x1="239.398" y1="131.244" x2="156.641" y2="283.115" gradientUnits="userSpaceOnUse">
<stop/>
<stop offset="0.99" stop-opacity="0"/>
</linearGradient>
<linearGradient id="paint16_linear_16_377" x1="423.129" y1="-61.08" x2="443.402" y2="-59.4615" gradientUnits="userSpaceOnUse">
<stop stop-color="#ECC4D7"/>
<stop offset="0.42" stop-color="#EFD4D1"/>
<stop offset="1" stop-color="#F2EAC9"/>
</linearGradient>
<linearGradient id="paint17_linear_16_377" x1="308.845" y1="238.265" x2="308.033" y2="323.184" gradientUnits="userSpaceOnUse">
<stop/>
<stop offset="0.99" stop-opacity="0"/>
</linearGradient>
<linearGradient id="paint18_linear_16_377" x1="544.751" y1="240.513" x2="543.94" y2="325.433" gradientUnits="userSpaceOnUse">
<stop/>
<stop offset="0.99" stop-opacity="0"/>
</linearGradient>
<linearGradient id="paint19_linear_16_377" x1="539.76" y1="306.247" x2="546.155" y2="358.83" gradientUnits="userSpaceOnUse">
<stop/>
<stop offset="0.99" stop-opacity="0"/>
</linearGradient>
<linearGradient id="paint20_linear_16_377" x1="306.329" y1="308.733" x2="306.329" y2="356.814" gradientUnits="userSpaceOnUse">
<stop/>
<stop offset="0.99" stop-opacity="0"/>
</linearGradient>
<linearGradient id="paint21_linear_16_377" x1="438.534" y1="-69.6261" x2="433.053" y2="197.509" gradientUnits="userSpaceOnUse">
<stop stop-color="white"/>
<stop offset="0.09" stop-color="white" stop-opacity="0.95"/>
<stop offset="0.25" stop-color="white" stop-opacity="0.83"/>
<stop offset="0.46" stop-color="white" stop-opacity="0.63"/>
<stop offset="0.71" stop-color="white" stop-opacity="0.35"/>
<stop offset="0.99" stop-color="white" stop-opacity="0"/>
<stop offset="1" stop-color="white" stop-opacity="0"/>
</linearGradient>
<linearGradient id="paint22_linear_16_377" x1="529.357" y1="65.1215" x2="161.846" y2="195.125" gradientUnits="userSpaceOnUse">
<stop stop-color="white"/>
<stop offset="0.09" stop-color="white" stop-opacity="0.95"/>
<stop offset="0.25" stop-color="white" stop-opacity="0.83"/>
<stop offset="0.46" stop-color="white" stop-opacity="0.63"/>
<stop offset="0.71" stop-color="white" stop-opacity="0.35"/>
<stop offset="0.99" stop-color="white" stop-opacity="0"/>
<stop offset="1" stop-color="white" stop-opacity="0"/>
</linearGradient>
<linearGradient id="paint23_linear_16_377" x1="426.901" y1="225.657" x2="428.46" y2="281.046" gradientUnits="userSpaceOnUse">
<stop/>
<stop offset="0.99" stop-opacity="0"/>
</linearGradient>
<linearGradient id="paint24_linear_16_377" x1="2.76135" y1="82.2102" x2="175.069" y2="201.573" gradientUnits="userSpaceOnUse">
<stop stop-color="white"/>
<stop offset="0.09" stop-color="white" stop-opacity="0.95"/>
<stop offset="0.25" stop-color="white" stop-opacity="0.83"/>
<stop offset="0.46" stop-color="white" stop-opacity="0.63"/>
<stop offset="0.71" stop-color="white" stop-opacity="0.35"/>
<stop offset="0.99" stop-color="white" stop-opacity="0"/>
<stop offset="1" stop-color="white" stop-opacity="0"/>
</linearGradient>
<clipPath id="clip0_16_377">
<rect width="651" height="392" fill="white"/>
</clipPath>
</defs>
</svg>
