<svg width="68" height="68" viewBox="0 0 68 68" fill="none" xmlns="http://www.w3.org/2000/svg">
<path d="M31.4912 16.1035C26.9697 16.7903 24.6232 17.6106 22.3529 19.2894C21.132 20.2052 18.5183 22.9905 18.5183 23.3721C18.5183 23.4484 19.415 23.5056 20.5215 23.5056H22.5246L23.1733 22.5517C25.3672 19.3467 29.1637 16.8666 32.5214 16.4469C33.2463 16.3515 33.5325 16.2561 33.3799 16.1416C33.1128 15.9699 32.3878 15.9508 31.4912 16.1035Z" fill="#0C50A3"/>
<path d="M34.7915 17.286C30.3846 17.9919 26.1875 20.8917 24.2416 24.6119C23.8982 25.2605 23.5929 25.8328 23.5548 25.871C23.5166 25.9092 23.1541 25.7947 22.7154 25.623C20.9221 24.898 18.3275 25.6611 17.1828 27.2637C16.1145 28.7327 16.0191 29.3241 16.0763 34.8757L16.1335 39.9122L17.5262 39.9694L18.8998 40.0267V35.0474C18.8998 29.553 18.9952 29.0188 20.0254 28.4846C20.7313 28.1031 21.4371 28.1031 22.1239 28.4465C23.1923 28.9997 23.1923 28.9807 23.2877 34.6468L23.3831 39.9122L24.7757 39.9694L26.1493 40.0267V34.952C26.1493 29.3431 26.2066 29.0188 27.3322 28.4465C28.1525 28.0268 29.2972 28.1985 29.9458 28.828L30.4418 29.3241L30.5372 34.6277L30.6326 39.9122L32.5404 39.9694C33.5897 39.9885 34.5435 39.9504 34.658 39.874C34.7725 39.7787 35.65 38.634 36.623 37.2795C37.596 35.944 38.4735 34.8566 38.5499 34.8566C38.6452 34.8566 39.4656 35.8486 40.3622 37.0505C41.2589 38.2524 42.1937 39.378 42.4608 39.5497C42.7279 39.7214 43.3193 39.9122 43.7962 39.9694C44.2732 40.0076 44.6547 40.103 44.6547 40.1793C44.6547 40.4273 43.3002 41.3621 42.0411 41.9917C39.5228 43.2508 39.5991 43.2508 27.1986 43.2508H16L16.0763 47.5814L16.1335 51.9312L25.3862 51.9884C31.5293 52.0266 35.2494 51.9693 36.4513 51.8358C41.5451 51.2062 46.0092 48.5353 49.0808 44.2619C50.6833 42.0298 50.6451 41.82 48.9472 43.556C46.2191 46.3223 43.6055 47.7531 39.4656 48.7261C38.2828 48.9932 36.6993 49.0504 28.5913 49.1077L19.0906 49.184L19.0715 47.9439C19.0524 47.2571 19.0334 46.5703 19.0143 46.4368C18.9952 46.2651 21.1891 46.1888 29.1064 46.0934C40.2669 45.9789 40.1142 45.998 42.8805 44.6816C46.8868 42.7929 49.4051 39.8359 50.7787 35.4289C51.1412 34.2652 51.2365 33.5593 51.2365 31.7088C51.2365 30.3543 51.1221 28.9997 50.9695 28.3702C49.3288 21.9791 44.0252 17.5531 37.6532 17.2288C36.623 17.1716 35.3448 17.2097 34.7915 17.286ZM39.1222 20.1668C45.5323 21.5976 49.5768 27.8551 48.165 34.1507C47.8407 35.6197 46.6007 38.2143 45.952 38.7866C45.5705 39.1491 45.5514 39.13 44.9981 38.4814C43.3956 36.5736 40.4386 32.51 40.5149 32.3193C40.5721 32.1857 41.1063 31.4417 41.7168 30.6595C43.6055 28.2176 45.6086 25.5276 45.6086 25.4131C45.6086 25.3559 44.8455 25.3177 43.9298 25.3177C42.0029 25.3177 42.4608 24.9553 40.0761 28.2939C39.3893 29.2478 38.7597 30.0681 38.6834 30.1063C38.588 30.1444 37.8249 29.2287 36.9664 28.084C35.9362 26.6913 35.1731 25.871 34.7343 25.6611C34.0284 25.2987 31.6819 25.1842 31.6819 25.4894C31.6819 25.5848 32.7121 27.0347 33.9521 28.7136C35.2113 30.3924 36.3368 31.9377 36.4704 32.1476C36.6802 32.4719 36.5276 32.7581 35.2113 34.4941C34.3909 35.5816 33.6469 36.4973 33.5706 36.5354C33.4752 36.5736 33.3989 35.0283 33.3989 33.1015C33.3989 31.1746 33.3035 29.2859 33.2081 28.9044C32.9029 27.836 31.9108 26.6723 30.728 26.0045C29.8504 25.5085 29.4689 25.4131 28.4005 25.4131C27.6756 25.4131 27.1032 25.3559 27.1032 25.2796C27.1032 25.0888 28.4005 23.5626 29.0682 22.9712C30.48 21.7121 32.6548 20.6056 34.4482 20.1858C35.4974 19.9569 38.0729 19.9378 39.1222 20.1668Z" fill="#0C50A3"/>
</svg>
